<?xml version="1.0" encoding="UTF-8" standalone="no"?>
<svg
   height="24"
   width="22.28"
   viewBox="0 0 747.62 801.45"
   version="1.1"
   id="svg16"
   sodipodi:docname="mastodon.svg"
   inkscape:version="1.2.2 (732a01da63, 2022-12-09)"
   xmlns:inkscape="http://www.inkscape.org/namespaces/inkscape"
   xmlns:sodipodi="http://sodipodi.sourceforge.net/DTD/sodipodi-0.dtd"
   xmlns="http://www.w3.org/2000/svg"
   xmlns:svg="http://www.w3.org/2000/svg">
  <defs
     id="defs20" />
  <sodipodi:namedview
     id="namedview18"
     pagecolor="#ffffff"
     bordercolor="#000000"
     borderopacity="0.25"
     inkscape:showpageshadow="2"
     inkscape:pageopacity="0.0"
     inkscape:pagecheckerboard="0"
     inkscape:deskcolor="#d1d1d1"
     showgrid="false"
     inkscape:zoom="33.5"
     inkscape:cx="11.134328"
     inkscape:cy="12.61194"
     inkscape:window-width="1920"
     inkscape:window-height="991"
     inkscape:window-x="-9"
     inkscape:window-y="-9"
     inkscape:window-maximized="1"
     inkscape:current-layer="svg16" />
  <path
     id="path12"
     d="M 371.79927 0.21991563 C 269.59937 1.0599148 171.2612 12.108822 113.97126 38.428795 C 113.97126 38.428795 0.39323032 89.27133 0.39323032 262.70116 C 0.39323032 302.42112 -0.40799971 349.90628 0.85199903 400.26623 C 4.9719949 569.86606 31.950712 737.04384 188.75056 778.5538 C 261.05048 797.68378 323.11009 801.68624 373.11004 798.93624 C 463.76995 793.90625 514.67295 766.56028 514.67295 766.56028 L 511.65819 700.75974 C 511.65819 700.75974 446.85304 721.20725 374.09311 718.71725 C 302.01319 716.24726 225.97051 710.96128 214.31053 622.44136 C 213.23053 614.67137 212.67207 606.33231 212.67207 597.60232 C 212.67207 597.60232 283.43013 614.93337 373.11004 619.03337 C 427.93998 621.55337 479.35191 615.82583 531.58186 609.59584 C 631.75176 597.63585 719.00657 535.90209 729.96656 479.50214 C 747.23654 390.66223 745.76131 262.70116 745.76131 262.70116 C 745.76131 89.27133 632.18328 38.428795 632.18328 38.428795 C 574.89334 12.108822 476.47963 1.0599148 374.28973 0.21991563 L 371.79927 0.21991563 z M 256.12402 135.7533 C 298.69397 135.7533 330.95885 152.11159 352.26883 184.84155 L 372.97896 219.5769 L 393.68909 184.84155 C 414.99907 152.11159 447.26395 135.7533 489.83391 135.7533 C 526.62387 135.7533 556.2706 148.66667 578.90057 173.89664 C 600.85055 199.12662 611.80084 233.21657 611.80084 276.13653 L 611.80084 486.12152 L 528.56709 486.12152 L 528.56709 282.36267 C 528.56709 239.39272 510.52681 217.54521 474.36685 217.54521 C 434.38689 217.54521 414.33368 243.39286 414.33368 294.55281 L 414.33368 406.16469 L 331.62424 406.16469 L 331.62424 294.55281 C 331.62424 243.39286 311.56104 217.54521 271.59108 217.54521 C 235.43111 217.54521 217.39083 239.39272 217.39083 282.36267 L 217.39083 486.12152 L 134.15708 486.12152 L 134.15708 276.13653 C 134.15708 233.21657 145.10737 199.12662 167.05735 173.89664 C 189.68733 148.66667 219.32405 135.7533 256.12402 135.7533 z "
     style="fill:#ffffff" />
</svg>
